<svg width="12" height="12" viewBox="0 0 12 12" fill="none" xmlns="http://www.w3.org/2000/svg">
<g id="Iconly/Bold/Image">
<g id="Image">
<path id="Image_2" fill-rule="evenodd" clip-rule="evenodd" d="M3.83309 11H8.16641C9.86155 11 11 9.81094 11 8.04164V3.95836C11 2.18906 9.86155 1 8.16691 1H3.83309C2.13845 1 1 2.18906 1 3.95836V8.04164C1 9.81094 2.13845 11 3.83309 11ZM4.24943 5.5C3.56011 5.5 3 4.93913 3 4.25C3 3.56087 3.56011 3 4.24943 3C4.93825 3 5.49886 3.56087 5.49886 4.25C5.49886 4.93913 4.93825 5.5 4.24943 5.5ZM9.91041 7.46698C10.0778 7.89629 9.99085 8.41228 9.81186 8.83746C9.59968 9.34314 9.19343 9.72601 8.68159 9.89319C8.45433 9.96749 8.21601 10 7.97819 10H3.76432C3.345 10 2.97394 9.89938 2.66975 9.71207C2.4792 9.59443 2.44551 9.32301 2.58679 9.14706C2.8231 8.85294 3.0564 8.55779 3.2917 8.26006C3.74019 7.6904 4.04236 7.52528 4.37823 7.67028C4.51448 7.73013 4.65124 7.81992 4.79202 7.91486C5.1671 8.16976 5.68849 8.52012 6.3753 8.13984C6.8453 7.8766 7.1179 7.42507 7.35529 7.03186L7.35926 7.02528L7.40938 6.94261C7.48916 6.8106 7.56787 6.68036 7.65691 6.56037C7.76853 6.41022 8.18232 5.94066 8.7183 6.27503C9.05969 6.48555 9.34678 6.77038 9.65399 7.07534C9.77113 7.19195 9.8546 7.32456 9.91041 7.46698Z" fill="white"/>
</g>
</g>
</svg>
