<svg width="12" height="12" viewBox="0 0 12 12" fill="none" xmlns="http://www.w3.org/2000/svg">
<g id="Iconly/Bold/Location">
<g id="Location">
<path id="Location_2" fill-rule="evenodd" clip-rule="evenodd" d="M1.75 5.15888C1.75 2.85895 3.67194 1 5.99672 1C8.32806 1 10.25 2.85895 10.25 5.15888C10.25 6.31785 9.8285 7.39381 9.13475 8.30579C8.3694 9.31176 7.42608 10.1882 6.36427 10.8762C6.12126 11.0352 5.90194 11.0472 5.63522 10.8762C4.56737 10.1882 3.62404 9.31176 2.86525 8.30579C2.17099 7.39381 1.75 6.31785 1.75 5.15888ZM4.59712 5.28838C4.59712 6.05886 5.22584 6.66484 5.99673 6.66484C6.76813 6.66484 7.40289 6.05886 7.40289 5.28838C7.40289 4.5239 6.76813 3.88842 5.99673 3.88842C5.22584 3.88842 4.59712 4.5239 4.59712 5.28838Z" fill="#181818"/>
</g>
</g>
</svg>
