<svg width="12" height="12" viewBox="0 0 12 12" fill="none" xmlns="http://www.w3.org/2000/svg">
<g id="Iconly/Bold/Star">
<g id="Star">
<path id="Star_2" d="M8.95925 7.16005C8.82975 7.28555 8.77025 7.46705 8.79975 7.64505L9.24426 10.105C9.28176 10.3135 9.19376 10.5246 9.01925 10.6451C8.84825 10.7701 8.62075 10.7851 8.43425 10.6851L6.21975 9.53005C6.14275 9.48905 6.05725 9.46705 5.96975 9.46455H5.83425C5.78725 9.47155 5.74125 9.48655 5.69925 9.50955L3.48425 10.6701C3.37475 10.7251 3.25075 10.7446 3.12925 10.7251C2.83325 10.6691 2.63575 10.3871 2.68425 10.0896L3.12925 7.62955C3.15875 7.45005 3.09925 7.26755 2.96975 7.14005L1.16425 5.39005C1.01325 5.24355 0.960755 5.02355 1.02975 4.82505C1.09675 4.62705 1.26775 4.48255 1.47425 4.45005L3.95925 4.08955C4.14825 4.07005 4.31425 3.95505 4.39925 3.78505L5.49425 1.54005C5.52025 1.49005 5.55375 1.44405 5.59425 1.40505L5.63925 1.37005C5.66275 1.34405 5.68975 1.32255 5.71975 1.30505L5.77425 1.28505L5.85925 1.25005H6.06975C6.25775 1.26955 6.42325 1.38205 6.50975 1.55005L7.61925 3.78505C7.69925 3.94855 7.85475 4.06205 8.03426 4.08955L10.5193 4.45005C10.7293 4.48005 10.9048 4.62505 10.9743 4.82505C11.0398 5.02555 10.9833 5.24555 10.8293 5.39005L8.95925 7.16005Z" fill="#181818"/>
</g>
</g>
</svg>
